# xmcd
#
# Track frame offsets: 
#        150
#        28914
#        55705
#        82956
#        125855
#        144223
#
# Disc length: 2385 seconds
#
# Revision: 0
# Processed by: cddbd v1.5.2PL0 Copyright (c) Steve Scherf et al.
# Submitted via: ExactAudioCopy v1.0b4
#
DISCID=4b094f06
DTITLE=Louisiana Red and His Chicago Blues Friends - Boy From Black Bayo
DTITLE=u - A Tribute To Muddy Waters
DYEAR=1900
DGENRE=Blues
TTITLE0=Future Blues
TTITLE1=Boy From Black Bayou
TTITLE2=The Good Book
TTITLE3=Im Too Good
TTITLE4=Texas Hop
TTITLE5=Gal From Elgin Illinois
EXTD=
EXTT0=
EXTT1=
EXTT2=
EXTT3=
EXTT4=
EXTT5=
PLAYORDER=
